<?xml version="1.0" encoding="UTF-8"?> <svg xmlns="http://www.w3.org/2000/svg" width="208.097" height="43.379" viewBox="0 0 208.097 43.379"><g id="Group_8041" data-name="Group 8041" transform="translate(-356.669 -414.232)"><path id="Path_23802" data-name="Path 23802" d="M380.443,446.232a11.631,11.631,0,0,0,2.232-7.395c0-3.443-.923-6.159-2.742-8.073s-4.453-2.885-7.824-2.885H356.669v39.287H360.2V449.851h10.229l9.358,17.316h3.952l-9.648-17.558A9.437,9.437,0,0,0,380.443,446.232Zm-1.527-5.993a6.205,6.205,0,0,1-6.806,6.582H360.2v-15.8H372.11a6.2,6.2,0,0,1,6.806,6.526Z" transform="translate(0 -11.294)" fill="#fff"></path><path id="Path_23803" data-name="Path 23803" d="M566.115,494.108a9.358,9.358,0,0,0-2.717-7.138c-1.8-1.692-4.423-2.55-7.792-2.55a11.473,11.473,0,0,0-6.408,1.627,10.1,10.1,0,0,0-3.645,4.15l-.028.061,2.151,1.779.049-.094a8.07,8.07,0,0,1,7.769-4.605c4.814,0,7.255,2.366,7.255,7.031v3.276h-6.526c-4.147,0-7.173.763-8.993,2.269a7.582,7.582,0,0,0-2.749,6.138,8.119,8.119,0,0,0,2.494,6.333c1.652,1.488,4.028,2.242,7.063,2.242a10.235,10.235,0,0,0,5.594-1.414,7.964,7.964,0,0,0,3.15-3.8h.135v.928a4.314,4.314,0,0,0,.974,2.629,3.508,3.508,0,0,0,2.755.982h3.336v-2.918h-3.866Zm-18.1,11.212a4.35,4.35,0,0,1,1.9-3.73c1.269-.9,3.354-1.364,6.2-1.364h6.638v5.263a5.224,5.224,0,0,1-.634,2.577,5.94,5.94,0,0,1-1.768,1.943,8.938,8.938,0,0,1-2.636,1.254,11.306,11.306,0,0,1-3.226.446,7.915,7.915,0,0,1-4.713-1.279,4.356,4.356,0,0,1-1.757-3.759Z" transform="translate(-155.422 -58.083)" fill="#fff"></path><path id="Path_23804" data-name="Path 23804" d="M737.429,431.6H737.4a8.8,8.8,0,0,0-3.259-3.825,9.968,9.968,0,0,0-5.539-1.443,10.634,10.634,0,0,0-8.753,3.955c-2.095,2.618-3.157,6.369-3.157,11.149s1.062,8.532,3.157,11.149a10.632,10.632,0,0,0,8.753,3.955,9.831,9.831,0,0,0,5.511-1.443,9.242,9.242,0,0,0,3.285-3.824h.027v4.6H740.8V414.232h-3.367Zm-.634,1.529a5.224,5.224,0,0,1,.634,2.536v11.376a5.619,5.619,0,0,1-.634,2.677,6.4,6.4,0,0,1-1.742,2.046,7.905,7.905,0,0,1-2.578,1.3,10.85,10.85,0,0,1-3.141.445,8.427,8.427,0,0,1-6.66-2.717,10.778,10.778,0,0,1-2.388-7.34v-4.035a10.781,10.781,0,0,1,2.388-7.34,8.43,8.43,0,0,1,6.66-2.716,10.288,10.288,0,0,1,3.14.472,8.734,8.734,0,0,1,2.58,1.3A6.219,6.219,0,0,1,736.8,433.132Z" transform="translate(-297.937 0)" fill="#fff"></path><path id="Path_23805" data-name="Path 23805" d="M914.576,416.507a2.276,2.276,0,0,0-1.716.587,2.12,2.12,0,0,0-.556,1.516v.561a2.117,2.117,0,0,0,.556,1.516,2.8,2.8,0,0,0,3.431,0,2.12,2.12,0,0,0,.556-1.516v-.561a2.123,2.123,0,0,0-.556-1.516A2.278,2.278,0,0,0,914.576,416.507Z" transform="translate(-459.812 -1.883)" fill="#fff"></path><rect id="Rectangle_2911" data-name="Rectangle 2911" width="3.367" height="28.864" transform="translate(453.108 427.009)" fill="#fff"></rect><path id="Path_23806" data-name="Path 23806" d="M980.085,415.551a5.306,5.306,0,0,0-1.113,3.53v7.927h-4.931v2.918h4.931v25.946h3.367V429.927h6.332v-2.918h-6.332V417.15h6.332v-2.918h-5.129A4.3,4.3,0,0,0,980.085,415.551Z" transform="translate(-510.902 0)" fill="#fff"></path><path id="Path_23807" data-name="Path 23807" d="M1098.606,414.232h-3.367v38.08a3.625,3.625,0,0,0,.92,2.58,3.538,3.538,0,0,0,2.7.98h4.177v-2.918h-4.427Z" transform="translate(-611.199 0)" fill="#fff"></path><path id="Path_23808" data-name="Path 23808" d="M1374.511,488.318l-6.828,25.8-7.649-25.739-.018-.062h-3.1l-7.611,25.8-6.867-25.737-.017-.064H1339.1l8.118,28.864h4l7.165-24.125,7.2,24.064.018.062h4.052l8.118-28.864Z" transform="translate(-813.007 -61.309)" fill="#fff"></path><path id="Path_23809" data-name="Path 23809" d="M1194.872,488.967l-11.728-3.518a1.474,1.474,0,0,0-.851,0l-11.729,3.519a1.47,1.47,0,0,0-1.054,1.417v12.9a8.916,8.916,0,0,0,2.147,5.478,21.457,21.457,0,0,0,4.329,4.014,38.34,38.34,0,0,0,6.127,3.587,1.481,1.481,0,0,0,1.209,0,38.36,38.36,0,0,0,6.127-3.587,21.456,21.456,0,0,0,4.329-4.014,8.915,8.915,0,0,0,2.148-5.478v-12.9A1.489,1.489,0,0,0,1194.872,488.967Zm-1.9,2.518v11.8c0,2.715-2.844,5.348-5.23,7.079a36.39,36.39,0,0,1-5.019,3.01,36.371,36.371,0,0,1-5.019-3.01c-2.386-1.731-5.23-4.364-5.23-7.079v-11.8l10.249-3.075Z" transform="translate(-672.661 -58.883)" fill="#0073ff"></path></g></svg> 